{"title":"Pitbull ft.Mohombi+Wisin - Baddest Girl In Town (2015.Latin)","uid":12405024,"size":73591366,"categoryP":"video","categoryS":"music_videos","magnet":"?xt=urn:btih:e92e4a3398875fde5b876b4fa740b9564a9e103e&amp;dn=Pitbull+ft.Mohombi%2BWisin+-+Baddest+Girl+In+Town+%282015.Latin%29&amp;tr=udp%3A%2F%2Ftracker.openbittorrent.com%3A80&amp;tr=udp%3A%2F%2Fopen.demonii.com%3A1337&amp;tr=udp%3A%2F%2Ftracker.coppersurfer.tk%3A6969&amp;tr=udp%3A%2F%2Fexodus.desync.com%3A6969","seeders":0,"leechers":1,"uploader":"MeRaDil","files":1,"time":1442079976,"description":"PITBULL ft.MOHOMBI &amp; WISIN - BADDEST GIRL IN TOWN\n\n &lt;a href=&quot;\nhttp://gifyu.com/images/pitbull-1.png&quot; rel=&quot;nofollow&quot; target=&quot;_NEW&quot;&gt;\nhttp://gifyu.com/images/pitbull-1.png&lt;/a&gt;\n\n\nGeneral\nPitbull ft. Mohombi &amp; Wisin - Baddest Girl In Town\nFormat                                   : MPEG-4\nFormat profile                           : Base Media\nCodec ID                                 : isom\nFile size                                : 70.2 MiB\nDuration                                 : 3mn 22s\nOverall bit rate                         : 2 908 Kbps\nMusicVid name                            : Baddest Girl In Town\nPerformer                                : Pitbull ft.Mohombi &amp; Wisin\nGenre                                    : Latin\nContentType                              : Music Video\nRecorded date                            : 2015\nMake                                     : MeRaDil\nRelease date                             : USA - september 8 - 2015\nPart_ID                                  : Baddest Girl In Town\n &lt;a href=&quot;\nhttps://thepiratebay.la/user/MeRaDil&quot; rel=&quot;nofollow&quot; target=&quot;_NEW&quot;&gt;\nhttps://thepiratebay.la/user/MeRaDil&lt;/a&gt;\n\nVideo\nID                                       : 1\nFormat                                   : AVC\nFormat/Info                              : Advanced Video Codec\nFormat profile                           : &lt;a class=&quot;__cf_email__&quot; href=&quot;/cdn-cgi/l/email-protection&quot; data-cfemail=&quot;d59dbcb2bd9599e1fbe5&quot;&gt;[email&amp;#160;protected]&lt;/a&gt;&lt;script data-cfhash='f9e31' type=&quot;text/javascript&quot;&gt;\n/* &lt;![CDATA[ */!function(){try{var t=&quot;currentScript&quot;in document?document.currentScript:function(){for(var t=document.getElementsByTagName(&quot;script&quot;),e=t.length;e--;)if(t[e].getAttribute(&quot;data-cfhash&quot;))return t[e]}();if(t&amp;&amp;t.previousSibling){var e,r,n,i,c=t.previousSibling,a=c.getAttribute(&quot;data-cfemail&quot;);if(a){for(e=&quot;&quot;,r=parseInt(a.substr(0,2),16),n=2;a.length-n;n+=2)i=parseInt(a.substr(n,2),16)^r,e+=String.fromCharCode(i);e=document.createTextNode(e),c.parentNode.replaceChild(e,c)}t.parentNode.removeChild(t);}}catch(u){}}()/* ]]&gt; */&lt;/script&gt;\nFormat settings, CABAC                   : Yes\nFormat settings, ReFrames                : 3 frames\nCodec ID                                 : avc1\nCodec ID/Info                            : Advanced Video Coding\nDuration                                 : 3mn 22s\nBit rate                                 : 2 636 Kbps\nWidth                                    : 1 920 pixels\nHeight                                   : 1 080 pixels\nDisplay aspect ratio                     : 16:9\nFrame rate mode                          : Variable\nFrame rate                               : 23.976 fps\nMinimum frame rate                       : 23.974 fps\nMaximum frame rate                       : 23.981 fps\nColor space                              : YUV\nChroma subsampling                       : 4:2:0\nBit depth                                : 8 bits\nScan type                                : Progressive\nBits/(Pixel*Frame)                       : 0.053\nStream size                              : 63.6 MiB (91%)\n\nAudio\nID                                       : 2\nFormat                                   : AAC\nFormat/Info                              : Advanced Audio Codec\nFormat profile                           : LC\nCodec ID                                 : 40\nDuration                                 : 3mn 22s\nBit rate mode                            : Constant\nBit rate                                 : 256 Kbps\nChannel(s)                               : 2 channels\nChannel positions                        : Front: L R\nSampling rate                            : 44.1 KHz\nCompression mode                         : Lossy\nStream size                              : 6.18 MiB (9%)\n\nPitbull * Mohombi * Wisin * Latin/Rap * Promo","torrent":{"xt":"urn:btih:e92e4a3398875fde5b876b4fa740b9564a9e103e","amp;dn":"Pitbull+ft.Mohombi%2BWisin+-+Baddest+Girl+In+Town+%282015.Latin%29","amp;tr":["udp%3A%2F%2Ftracker.openbittorrent.com%3A80","udp%3A%2F%2Fopen.demonii.com%3A1337","udp%3A%2F%2Ftracker.coppersurfer.tk%3A6969","udp%3A%2F%2Fexodus.desync.com%3A6969"],"infoHash":"e92e4a3398875fde5b876b4fa740b9564a9e103e","infoHashBuffer":{"type":"Buffer","data":[233,46,74,51,152,135,95,222,91,135,107,79,167,64,185,86,74,158,16,62]},"announce":[],"urlList":[]}}